<?xml version="1.0" standalone="no"?><!DOCTYPE svg PUBLIC "-//W3C//DTD SVG 1.1//EN" "http://www.w3.org/Graphics/SVG/1.1/DTD/svg11.dtd"><svg t="1644119640964" class="icon" viewBox="0 0 1024 1024" version="1.1" xmlns="http://www.w3.org/2000/svg" p-id="7598" xmlns:xlink="http://www.w3.org/1999/xlink" width="200" height="200"><defs><style type="text/css"></style></defs><path d="M471.069384 431.631946c-81.206469 0-146.986104 63.160587-146.986104 141.061306 0 77.932659 65.795605 141.109215 146.986104 141.109215 81.15856 0 146.954165-63.176557 146.954165-141.109215 0-77.900719-65.795605-141.061306-146.954165-141.061306z m9.1507 261.984685h-22.677126a22.469519 22.469519 0 0 1-22.629217-22.293851c0-12.296751 10.140827-22.261911 22.645187-22.261911h22.677126c12.472419 0 22.645186 9.981129 22.645186 22.261911 0 12.328691-10.172767 22.293851-22.661156 22.293851z m22.677126-100.226509c0 18.445127-15.251166 33.408836-34.015689 33.408836-18.748554 0-33.96778-14.963709-33.96778-33.408836v-89.111524c0-18.461097 15.219226-33.424806 33.96778-33.424806 18.764523 0 34.015689 14.963709 34.015689 33.424806v89.111524z m263.661515 241.70303l-116.499743-136.493941c-1.309524-1.485192-2.778746-2.714867-4.184089-3.992452 29.320566-41.234042 44.076668-92.7207 37.433228-146.602829-14.308947-116.036618-121.530232-198.6644-239.531137-184.61097-117.984935 14.10134-202.01806 119.565946-187.677173 235.586594 14.308947 116.036618 121.530232 198.6644 239.547107 184.595a217.029678 217.029678 0 0 0 84.43237-28.538045c0.207607 0.255517 0.335366 0.574913 0.574913 0.8464l116.515712 136.493941a45.817377 45.817377 0 0 0 63.815349 5.493614 44.060698 44.060698 0 0 0 5.557493-62.777312zM588.878651 691.332949c-0.878339 0.654762-1.836528 1.085947-2.666957 1.788618a44.443973 44.443973 0 0 0-6.611501 6.787168 169.934717 169.934717 0 0 1-89.526738 38.742752c-92.768609 11.051107-177.057251-53.914069-188.331935-145.117637-11.258714-91.219538 54.824348-174.134776 147.576987-185.201853 92.7207-11.067076 177.073221 53.898099 188.284026 145.117637 6.547621 52.93991-13.063302 102.957346-48.707912 137.883315z" p-id="7599"></path><path d="M990.886605 442.683052a25.008718 25.008718 0 0 0-1.868467-1.996226l-90.692535-86.492475 0.03194-0.527003L536.641412 9.230548a23.044432 23.044432 0 0 0-32.083342-0.207607L41.369785 440.495189c-0.734611 0.670732-1.437283 1.405343-2.092044 2.203833-11.833627 13.973581-18.349308 32.482588-18.349309 51.981722 0 41.234042 29.256687 74.770637 65.236662 74.770637h22.293851v427.99083c0 14.612373 10.955288 26.446001 24.433805 26.446h770.175886c13.510457 0 24.449775-11.833627 24.449775-26.446v-427.99083h16.48084c35.964006 0 65.236662-33.536595 65.236662-74.770637 0-19.531074-6.499711-38.008141-18.349308-51.997692z m-80.136492 75.808675h-30.023237c-1.868467 0 18.285429-1.708769 16.480841-1.261615-1.740709-0.447155-20.505232 1.788618-22.38967 1.788618-13.510457 0-27.452098-0.638792-27.452098 13.973581l1.996226 426.010574h-654.762091L193.27459 542.973441c0-14.612373-10.955288-26.47794-24.433805-26.47794H122.09716c-8.863243 0-16.369052-9.981129-16.369052-21.814757 0-5.81301 1.6928-11.194835 4.790942-15.315045L517.988678 95.818843 922.264344 481.250136c3.114112 4.13618 4.854821 9.565914 4.854821 15.410864-0.03194 11.849597-7.505809 21.830726-16.369052 21.830727z" p-id="7600"></path></svg>