<?xml version="1.0" standalone="no"?><!DOCTYPE svg PUBLIC "-//W3C//DTD SVG 1.1//EN" "http://www.w3.org/Graphics/SVG/1.1/DTD/svg11.dtd"><svg t="1644119503229" class="icon" viewBox="0 0 1024 1024" version="1.1" xmlns="http://www.w3.org/2000/svg" p-id="2100" xmlns:xlink="http://www.w3.org/1999/xlink" width="200" height="200"><defs><style type="text/css"></style></defs><path d="M364 482.4c-107.8 0-195.4-87.7-195.4-195.4S256.2 91.5 364 91.5c107.8 0 195.4 87.7 195.4 195.4S471.7 482.4 364 482.4z m0-350.9c-85.7 0-155.4 69.7-155.4 155.4S278.3 442.4 364 442.4 519.4 372.7 519.4 287 449.7 131.5 364 131.5zM482.8 925.2c-8.9 0-17.7-1.1-26.3-3.2l-275.7-67.5c-5.5-1.3-10.2-5-12.9-10-2.7-5-3.1-10.9-1.2-16.2l47-131.3c3.6-10 14.3-15.4 24.5-12.4l147.7 43.6V588c0-23.2 10.5-44.8 29.7-60.9 18.1-15.2 42-23.5 67.2-23.5 25.2 0 49.1 8.4 67.2 23.5 19.1 16 29.7 37.6 29.7 60.9 0 0.6 0.1 66-0.2 131.7-0.7 136.2-2.4 141.1-4 145.8-6.3 18-18.9 33.3-36.4 44.2-16.6 10.1-36.1 15.5-56.3 15.5zM211.9 821L466 883.2c5.5 1.3 11.1 2 16.8 2 24.9 0 47-12.9 54.3-31.6 2.1-19.9 2.7-172.3 2.5-265.7 0-24.5-25.5-44.4-56.8-44.4S426 563.4 426 587.9v167c0 6.3-3 12.2-8 16-5.1 3.8-11.6 4.9-17.6 3.2L245 728.4 211.9 821zM69.5 871c-2.5 0-5-0.5-7.4-1.4-10.3-4.1-15.2-15.7-11.1-26l83.5-208.9c4.1-10.3 15.7-15.2 26-11.1s15.2 15.7 11.1 26L88.1 858.4C85 866.3 77.4 871 69.5 871zM247.9 921H39c-11 0-20-9-20-20s9-20 20-20h208.9c11 0 20 9 20 20s-8.9 20-20 20zM656.5 875.2c-11 0-20-9-20-20s9-20 20-20c174.8 0 317.1-142.2 317.1-317.1 0-174.8-142.2-317.1-317.1-317.1-11 0-20-9-20-20s9-20 20-20c48.2 0 95 9.4 139 28.1 42.5 18 80.7 43.7 113.5 76.5s58.5 71 76.5 113.5c18.6 44 28.1 90.8 28.1 139s-9.4 95-28.1 139c-18 42.5-43.7 80.7-76.5 113.5s-71 58.5-113.5 76.5c-44 18.7-90.8 28.1-139 28.1z" fill="#1C1C1C" p-id="2101"></path><path d="M857.9 565h-174c-11 0-20-9-20-20V301c0-11 9-20 20-20s20 9 20 20v224h154c11 0 20 9 20 20s-8.9 20-20 20z" fill="#1C1C1C" p-id="2102"></path></svg>