<?xml version="1.0" encoding="utf-8"?>
<!-- Generator: Adobe Illustrator 25.0.0, SVG Export Plug-In . SVG Version: 6.00 Build 0)  -->
<svg version="1.1" id="图层_5" xmlns="http://www.w3.org/2000/svg" xmlns:xlink="http://www.w3.org/1999/xlink" x="0px" y="0px"
	 viewBox="0 0 600 600" style="enable-background:new 0 0 600 600;" xml:space="preserve">
<style type="text/css">
	.st0{fill:#64C8FA;}
	.st1{fill:none;stroke:#FFFFFF;stroke-width:30;stroke-miterlimit:10;}
	.st2{fill:none;stroke:#FFFFFF;stroke-width:20;stroke-linecap:round;stroke-linejoin:round;stroke-miterlimit:10;}
	.st3{fill:#FFFFFF;}
</style>
<path class="st0" d="M480,600H120C53.73,600,0,546.27,0,480V120C0,53.73,53.73,0,120,0h360c66.27,0,120,53.73,120,120v360
	C600,546.27,546.27,600,480,600z"/>
<circle class="st1" cx="300" cy="300" r="250"/>
<path class="st2" d="M335.83,242.22c20.25-8.09,37.74-18.48,52.46-31.18c19.01-16.28,27.81-29.83,26.41-40.63
	c-0.54-4.18-3.07-7.37-7.58-9.59c-3.57-1.72-7.62-2.38-12.14-1.97c-12.01,1.08-26.57,6.26-43.67,15.52
	c-23.03,12.42-40.46,27.33-52.28,44.71c-10.37,15.07-14.68,29.23-12.96,42.48c1.25,9.65,5.76,19.3,13.53,28.95
	c6.46,7.73,14.55,16.4,24.25,26.02c9.3,9.22,17.28,17.83,23.96,25.82c7.74,9.51,12.19,18.65,13.34,27.44
	c2.21,17-7.58,33.11-29.37,48.33c-18.59,12.75-40.5,20.26-65.73,22.53c-24.89,2.24-45.11-1.69-60.69-11.8
	c-11.74-7.69-18.34-17.15-19.8-28.39c-1.63-12.53,2.05-23.5,11.04-32.91c5.41-5.73,12.13-10.27,20.15-13.62
	c5.5-2.39,10.16-3.76,13.99-4.1"/>
<path class="st3" d="M246.36,335.21c1.99,1.42,3.97,2.84,5.96,4.26c3.74-2.04,7.49-4.09,11.23-6.13c-2.72-4.82-5.45-9.65-8.17-14.47
	c1.42-0.57,2.84-1.13,4.26-1.7c5.62,3.46,11.23,6.92,16.85,10.38c4.34-2.27,7.93-2.36,9.87-2.21c1.96,0.15,4.73,0.35,5.45,2.04
	c0.66,1.57-0.6,4.05-3.23,5.96c-2.89,1.25-5.79,2.5-8.68,3.74c-1.76,6.98-3.52,13.96-5.28,20.94c-1.7,0.28-3.4,0.57-5.11,0.85
	c-0.68-5.45-1.36-10.89-2.04-16.34c-4.37,0.79-8.74,1.59-13.11,2.38c-0.57,2.33-1.13,4.65-1.7,6.98c-1.65-0.06-3.29-0.11-4.94-0.17
	c0.74-2.78,1.48-5.56,2.21-8.34c-2.78-1.87-5.56-3.74-8.34-5.62C243.18,336.91,244.77,336.06,246.36,335.21z"/>
</svg>
