<svg xmlns="http://www.w3.org/2000/svg" viewBox="0 0 232.76 122.19"><defs><style>.cls-1{fill:none;stroke-linecap:round;stroke-linejoin:round;stroke-width:5.73px;}.cls-1,.cls-2{stroke:#000;}.cls-2{fill:#fff;stroke-miterlimit:10;}</style></defs><g id="图层_2" data-name="图层 2"><path class="cls-1" d="M97.73,101.39a52.65,52.65,0,0,0,15-8.92q8.17-7,7.56-11.64a3.5,3.5,0,0,0-2.17-2.74,6.59,6.59,0,0,0-3.47-.57Q109.5,78,102.15,82q-9.89,5.34-15,12.8-4.45,6.47-3.72,12.16a16.79,16.79,0,0,0,3.88,8.29q2.78,3.32,6.94,7.45,4,4,6.86,7.39a16,16,0,0,1,3.82,7.86q.94,7.29-8.41,13.84a38.81,38.81,0,0,1-18.82,6.45q-10.68,1-17.37-3.38-5-3.3-5.67-8.13a11,11,0,0,1,3.16-9.42,16.61,16.61,0,0,1,5.77-3.9,13.69,13.69,0,0,1,4-1.18" transform="translate(-51.73 -74.63)"/><path class="cls-2" d="M72.11,128l1.71,1.22L77,127.48l-2.34-4.14,1.22-.49,4.83,3a5.19,5.19,0,0,1,2.82-.63c.56,0,1.36.1,1.56.59s-.17,1.15-.92,1.7l-2.49,1.07c-.5,2-1,4-1.51,6l-1.46.24-.59-4.68-3.75.69-.49,2-1.41,0,.63-2.38-2.38-1.61Z" transform="translate(-51.73 -74.63)"/><path d="M131,118.77a2.59,2.59,0,0,1,2,.84,2.24,2.24,0,0,1,.57,1.41c0,.77-.69,2-2.06,3.85a114.3,114.3,0,0,0-10.51,17,135.42,135.42,0,0,0-5.9,14.11c-.75,2.14-1.94,3.21-3.55,3.21a2.8,2.8,0,0,1-2.27-1,2.57,2.57,0,0,1-.78-1.79q0-1.92,4.55-12.83a86.5,86.5,0,0,1,11.5-19,36,36,0,0,1,3.83-4.56A3.85,3.85,0,0,1,131,118.77Zm11.61-19.18c1.67,0,2.51.6,2.52,1.81s-.81,2.34-2.43,3.69a7.21,7.21,0,0,1-4.51,2,2.65,2.65,0,0,1-1.74-.55,1.55,1.55,0,0,1-.67-1.26q0-1.89,2.93-4A6.85,6.85,0,0,1,142.57,99.59Z" transform="translate(-51.73 -74.63)"/><path d="M193.11,147.54c-23.36,33.42-34.31-9.77-5.15-27.2,7.85-4.69,22.73-5.16,17.67,4.68,2.4,2.54,1.38,3.37-.47,6.84-2.76,5.59-9.12,16.69-3.29,21.84,1,.74,5.93,1.48,5.56,3.89C203.12,166.55,190.2,155.09,193.11,147.54ZM201.26,126c-9.58-11.78-31.85,23.77-20.15,26.13C191.19,149.91,193.88,132.11,201.26,126Z" transform="translate(-51.73 -74.63)"/><path d="M237.29,143c-1.68,4.08-3.84,7.69-5.73,11.62,5.06-3.33,9.35-5.49,12.73-7.51,5.43-3.26,6.05-4.17,8.94-5.49,2.36-1.08,8.23-2.12,4.94.62-9.44,7.83-20.2,14.54-31.37,20.66Q219,177.7,215.3,183q-9.81,13.86-18.47,13.85c-3,0-5.21-1.06-6.53-3.2a8,8,0,0,1-1.14-4.24q0-10.06,14.35-19.31,2.27-1.55,18.39-9.62,3.12-6,4.83-9.37-7.46,7.06-12.36,7.06a5.31,5.31,0,0,1-4.76-2.82,7.69,7.69,0,0,1-1.06-3.85q0-4.62,4.19-11.87A52,52,0,0,1,227.08,123q7-5.06,12.43-5.06a6.71,6.71,0,0,1,4.76,1.86,4.59,4.59,0,0,1,1.35,3.59,17,17,0,0,1-2.2,7.31m-25.78,37.15a46,46,0,0,0-16.55,10.91,20.77,20.77,0,0,0-4.76,7.18,5.86,5.86,0,0,0-.42,1.93,2.63,2.63,0,0,0,.42,1.47,2.53,2.53,0,0,0,2.21,1.16q4.4,0,10.29-8.54A158,158,0,0,0,217.64,167.88Zm19.25-37.28a8.37,8.37,0,0,0,1.77-4.1,1.54,1.54,0,0,0-1.77-1.73q-3.06,0-8.74,5.26A46.94,46.94,0,0,0,217.64,144a15.28,15.28,0,0,0-1.85,5.9,2.36,2.36,0,0,0,.57,1.73,2.17,2.17,0,0,0,1.63.58q2.49,0,7-4.62a48,48,0,0,0,4.83-5.77" transform="translate(-51.73 -74.63)"/><path d="M254,147.91c.17,3.33,3,4.69,7.49,4q8.78-1.09,17.88-14.72c1.52-2.5,4-3.6,5.17-1.11-1.12,8.49-21.49,29.55-34.26,20.23C239.62,146,253.6,121,268.12,117.63c8.18,0,6.7,7.24,4.2,12.53C268.93,137.51,261.7,142,254,147.91Zm-.32-6.06c6.76-3.57,13.78-9.48,14.51-16.1-1.2-2.67-3.94-.17-6.28,2A31.6,31.6,0,0,0,253.63,141.85Z" transform="translate(-51.73 -74.63)"/><path d="M135.33,159.45a12.7,12.7,0,0,1-4.4-.73q-1.67-.57-1.43-4.22t3.68-10Q140,132,149.9,114.52t14.95-26.36a20.58,20.58,0,0,1,4.67-5.46,6.07,6.07,0,0,1,6.15-1.15,1.23,1.23,0,0,1,1,1.44A14.49,14.49,0,0,1,175,86.7l-.45.69q-.41.58-1.23,2.13-18.15,28.14-33,55.71a18,18,0,0,0-2,8.19,47,47,0,0,1-.24,4.89Q137.49,159.4,135.33,159.45Z" transform="translate(-51.73 -74.63)"/><path d="M154,159.79a12.7,12.7,0,0,1-4.4-.73q-1.67-.57-1.43-4.22t3.68-10q6.85-12.42,16.72-29.94T183.51,88.5A20.58,20.58,0,0,1,188.18,83a6.07,6.07,0,0,1,6.15-1.15,1.23,1.23,0,0,1,1,1.44A14.12,14.12,0,0,1,193.7,87l-.45.69q-.41.58-1.23,2.13Q173.87,118,159,145.57a18.09,18.09,0,0,0-2,8.19,43.81,43.81,0,0,1-.24,4.89Q156.15,159.75,154,159.79Z" transform="translate(-51.73 -74.63)"/></g></svg>