<svg width="1097" height="1024" xmlns="http://www.w3.org/2000/svg" p-id="8513" version="1.1" class="icon" t="1643125926184">

 <g>
  <title>Layer 1</title>
  <path id="svg_1" p-id="8514" fill="#4CC8FB" d="m0,144.92254m72.46127,0l941.99649,0q72.46126,0 72.46126,72.46126l0,724.61269q0,72.46127 -72.46126,72.46127l-941.99649,0q-72.46127,0 -72.46127,-72.46127l0,-724.61268q0,-72.46127 72.46127,-72.46127z"/>
  <path id="svg_2" p-id="8515" fill="#FFFFFF" d="m108.6919,289.84507m54.34595,0l760.84332,0q54.34595,0 54.34595,54.34596l0,525.34419q0,54.34595 -54.34595,54.34595l-760.84332,0q-54.34595,0 -54.34595,-54.34595l0,-525.3442q0,-54.34595 54.34595,-54.34595z"/>
  <path id="svg_3" p-id="8516" fill="#FFFFFF" d="m108.6919,253.61444m54.34595,0l760.84332,0q54.34595,0 54.34595,54.34595l0,507.22888q0,54.34595 -54.34595,54.34595l-760.84332,0q-54.34595,0 -54.34595,-54.34595l0,-507.22888q0,-54.34595 54.34595,-54.34595z"/>
  <path id="svg_4" p-id="8517" fill="#FFCC68" d="m181.15317,344.19103l217.38381,0l0,126.80721l-217.38381,0l0,-126.80721z"/>
  <path id="svg_5" p-id="8518" fill="#FFCC68" d="m434.76761,344.19103l217.38381,0l0,126.80721l-217.38381,0l0,-126.80721z"/>
  <path id="svg_6" p-id="8519" fill="#FFCC68" d="m688.38205,344.19103l217.3838,0l0,126.80721l-217.3838,0l0,-126.80721z"/>
  <path id="svg_7" p-id="8520" fill="#B4ECFC" d="m181.15317,507.22888l217.38381,0l0,126.80722l-217.38381,0l0,-126.80722zm253.61444,0l217.38381,0l0,126.80722l-217.38381,0l0,-126.80722zm253.61444,0l217.3838,0l0,126.80722l-217.3838,0l0,-126.80722z"/>
  <path id="svg_8" p-id="8521" fill="#B4ECFC" d="m181.15317,670.26673l217.38381,0l0,126.80722l-217.38381,0l0,-126.80722zm253.61444,0l217.38381,0l0,126.80722l-217.38381,0l0,-126.80722zm253.61444,0l217.3838,0l0,126.80722l-217.3838,0l0,-126.80722z"/>
  <path id="svg_9" p-id="8522" fill="#50D4F8" d="m289.84507,0a36.23063,36.23063 0 0 1 36.23064,36.23063l0,235.49913a36.23063,36.23063 0 0 1 -36.23064,36.23063a36.23063,36.23063 0 0 1 -36.23063,-36.23063l0,-235.49913a36.23063,36.23063 0 0 1 36.23063,-36.23063zm253.61444,0a36.23063,36.23063 0 0 1 36.23064,36.23063l0,235.49913a36.23063,36.23063 0 0 1 -36.23064,36.23063a36.23063,36.23063 0 0 1 -36.23063,-36.23063l0,-235.49913a36.23063,36.23063 0 0 1 36.23063,-36.23063zm253.61444,0a36.23063,36.23063 0 0 1 36.23064,36.23063l0,235.49913a36.23063,36.23063 0 0 1 -72.46127,0l0,-235.49913a36.23063,36.23063 0 0 1 36.23063,-36.23063z"/>
  <path id="svg_11" p-id="8517" fill="#FFCC68" d="m181.15317,507.19103l217.38381,0l0,126.80721l-217.38381,0l0,-126.80721z"/>
  <path id="svg_12" p-id="8518" fill="#FFCC68" d="m434.76761,507.19103l217.38381,0l0,126.80721l-217.38381,0l0,-126.80721z"/>
  <path id="svg_13" p-id="8519" fill="#B4ECFC" d="m688.38205,507.19103l217.3838,0l0,126.80721l-217.3838,0l0,-126.80721z"/>
  <path id="svg_14" p-id="8517" fill="#B4ECFC" d="m181.15317,670.19103l217.38381,0l0,126.80721l-217.38381,0l0,-126.80721z"/>
  <path id="svg_15" p-id="8518" fill="#B4ECFC" d="m434.76761,670.19103l217.38381,0l0,126.80721l-217.38381,0l0,-126.80721z"/>
  <path id="svg_16" p-id="8519" fill="#B4ECFC" d="m688.38205,670.19103l217.3838,0l0,126.80721l-217.3838,0l0,-126.80721z"/>
 </g>
</svg>