<?xml version="1.0" standalone="no"?><!DOCTYPE svg PUBLIC "-//W3C//DTD SVG 1.1//EN" "http://www.w3.org/Graphics/SVG/1.1/DTD/svg11.dtd"><svg t="1642490564977" class="icon" viewBox="0 0 1024 1024" version="1.1" xmlns="http://www.w3.org/2000/svg" p-id="5250" xmlns:xlink="http://www.w3.org/1999/xlink" width="200" height="200"><defs><style type="text/css"></style></defs><path d="M967.923 816.207L820.507 623.723c52.293-49.884 85.147-119.722 85.147-197.472 0-150.684-122.99-273.33-274.018-273.33-151.2 0-274.019 122.646-274.019 273.33s122.99 273.33 274.019 273.33c48.68 0 94.264-12.9 133.999-35.09l147.932 193.171c6.708 8.773 16.857 13.417 27.35 13.417 7.225 0 14.621-2.236 20.642-7.052 14.965-11.525 17.89-32.855 6.364-47.82zM421.091 426.251c0-115.766 94.435-209.857 210.545-209.857S842.18 310.485 842.18 426.25s-94.436 209.857-210.545 209.857S421.09 542.016 421.09 426.251z m-132.623-137.44H83.255c-18.922 0-34.231-15.309-34.231-34.058s15.31-34.059 34.23-34.059h205.214c18.921 0 34.23 15.31 34.23 34.059 0 18.75-15.309 34.059-34.23 34.059z m-8.257 337.32H83.255c-18.922 0-34.231-15.309-34.231-34.058s15.31-34.06 34.23-34.06h196.957c18.922 0 34.23 15.31 34.23 34.06s-15.308 34.058-34.23 34.058z m-40.423-169.09H83.255c-18.922 0-34.231-15.309-34.231-34.23 0-18.922 15.31-34.231 34.23-34.231h156.534c18.921 0 34.23 15.31 34.23 34.23-0.172 18.922-15.48 34.231-34.23 34.231z m220.35 344.2H83.255c-18.922 0-34.231-15.309-34.231-34.23s15.31-34.23 34.23-34.23h376.884c18.921 0 34.23 15.308 34.23 34.23 0 18.921-15.309 34.23-34.23 34.23z" p-id="5251"></path></svg>