<?xml version="1.0" standalone="no"?><!DOCTYPE svg PUBLIC "-//W3C//DTD SVG 1.1//EN" "http://www.w3.org/Graphics/SVG/1.1/DTD/svg11.dtd"><svg t="1643125926184" class="icon" viewBox="0 0 1097 1024" version="1.1" xmlns="http://www.w3.org/2000/svg" p-id="8513" xmlns:xlink="http://www.w3.org/1999/xlink" width="214.2578125" height="200"><defs><style type="text/css"></style></defs><path d="M0 144.922537m72.461268 0l941.996489 0q72.461268 0 72.461268 72.461268l0 724.612683q0 72.461268-72.461268 72.461269l-941.996489 0q-72.461268 0-72.461268-72.461269l0-724.612683q0-72.461268 72.461268-72.461268Z" fill="#4CC8FB" p-id="8514"></path><path d="M108.691903 289.845073m54.345951 0l760.843317 0q54.345951 0 54.345952 54.345952l0 525.344195q0 54.345951-54.345952 54.345951l-760.843317 0q-54.345951 0-54.345951-54.345951l0-525.344195q0-54.345951 54.345951-54.345952Z" fill="#FFFFFF" p-id="8515"></path><path d="M108.691903 253.614439m54.345951 0l760.843317 0q54.345951 0 54.345952 54.345951l0 507.228879q0 54.345951-54.345952 54.345951l-760.843317 0q-54.345951 0-54.345951-54.345951l0-507.228879q0-54.345951 54.345951-54.345951Z" fill="#FFFFFF" p-id="8516"></path><path d="M181.153171 344.191025h217.383805v126.807219H181.153171z" fill="#FFCC68" p-id="8517"></path><path d="M434.76761 344.191025h217.383805v126.807219H434.76761z" fill="#B4ECFC" p-id="8518"></path><path d="M688.382049 344.191025h217.383805v126.807219H688.382049z" fill="#B4ECFC" p-id="8519"></path><path d="M181.153171 507.228878h217.383805v126.80722H181.153171zM434.76761 507.228878h217.383805v126.80722H434.76761zM688.382049 507.228878h217.383805v126.80722H688.382049z" fill="#B4ECFC" p-id="8520"></path><path d="M181.153171 670.266732h217.383805v126.80722H181.153171zM434.76761 670.266732h217.383805v126.80722H434.76761zM688.382049 670.266732h217.383805v126.80722H688.382049z" fill="#B4ECFC" p-id="8521"></path><path d="M289.845073 0a36.230634 36.230634 0 0 1 36.230635 36.230634v235.499122a36.230634 36.230634 0 0 1-36.230635 36.230634 36.230634 36.230634 0 0 1-36.230634-36.230634V36.230634a36.230634 36.230634 0 0 1 36.230634-36.230634z m253.61444 0a36.230634 36.230634 0 0 1 36.230634 36.230634v235.499122a36.230634 36.230634 0 0 1-36.230634 36.230634 36.230634 36.230634 0 0 1-36.230635-36.230634V36.230634a36.230634 36.230634 0 0 1 36.230635-36.230634z m253.614439 0a36.230634 36.230634 0 0 1 36.230634 36.230634v235.499122a36.230634 36.230634 0 0 1-72.461268 0V36.230634a36.230634 36.230634 0 0 1 36.230634-36.230634z" fill="#50D4F8" p-id="8522"></path></svg>